<?xml version="1.0" encoding="UTF-8" standalone="no"?>
<svg
   xmlns:dc="http://purl.org/dc/elements/1.1/"
   xmlns:cc="http://creativecommons.org/ns#"
   xmlns:rdf="http://www.w3.org/1999/02/22-rdf-syntax-ns#"
   xmlns:svg="http://www.w3.org/2000/svg"
   xmlns="http://www.w3.org/2000/svg"
   xmlns:sodipodi="http://sodipodi.sourceforge.net/DTD/sodipodi-0.dtd"
   xmlns:inkscape="http://www.inkscape.org/namespaces/inkscape"
   version="1.1"
   id="Layer_1"
   x="0px"
   y="0px"
   width="100"
   height="100"
   viewBox="0 0 99.999998 100"
   enable-background="new 0 0 20 20"
   xml:space="preserve"
   inkscape:version="0.48.4 r9939"
   sodipodi:docname="component.svg"><metadata
     id="metadata15"><rdf:RDF><cc:Work
         rdf:about=""><dc:format>image/svg+xml</dc:format><dc:type
           rdf:resource="http://purl.org/dc/dcmitype/StillImage" /></cc:Work></rdf:RDF></metadata><defs
     id="defs13" /><sodipodi:namedview
     pagecolor="#ffffff"
     bordercolor="#666666"
     borderopacity="1"
     objecttolerance="10"
     gridtolerance="10"
     guidetolerance="10"
     inkscape:pageopacity="0"
     inkscape:pageshadow="2"
     inkscape:window-width="1680"
     inkscape:window-height="1022"
     id="namedview11"
     showgrid="false"
     inkscape:zoom="4"
     inkscape:cx="99.098119"
     inkscape:cy="66.522862"
     inkscape:window-x="1366"
     inkscape:window-y="0"
     inkscape:window-maximized="1"
     inkscape:current-layer="Layer_1"
     fit-margin-top="0"
     fit-margin-left="0"
     fit-margin-right="0"
     fit-margin-bottom="0" /><path
     d="m 96.201754,69.050751 c -2.052491,2.144601 -4.935991,3.494349 -8.139879,3.494349 -6.232565,0 -11.283694,-5.044062 -11.283694,-11.262905 0,-6.223843 5.051129,-11.267906 11.283694,-11.267906 3.203888,0 6.087388,1.34975 8.139879,3.49435 H 99.93128 V 22.294443 H 68.803502 v -2.879465 c 2.152612,-2.049619 3.504254,-4.924085 3.504254,-8.128489 -0.005,-6.2238423 -5.056137,-11.26790555 -11.288701,-11.26790555 -6.232565,0 -11.283694,5.04406325 -11.283694,11.26790555 0,3.204404 1.356646,6.07887 3.499247,8.128489 v 2.879465 H 22.111836 v 31.084221 h -2.688263 c -2.052491,-2.144601 -4.93599,-3.49935 -8.139879,-3.49935 C 5.0511299,49.879314 0,54.928377 0,61.147219 c 0,6.223843 5.0511299,11.267906 11.283694,11.267906 3.203889,0 6.087388,-1.349749 8.139879,-3.49935 h 2.688263 v 31.084222 h 31.358057 v -3.399368 c -2.152612,-2.049619 -3.504253,-4.929085 -3.504253,-8.12349 0,-6.223844 5.05113,-11.267905 11.283694,-11.267905 6.232563,0 11.283694,5.044061 11.283694,11.267905 0,3.199405 -1.356646,6.073871 -3.499246,8.12349 v 3.399368 h 30.89249 V 69.050751 h -3.724518 z"
     id="path9"
     inkscape:connector-curvature="0"
     style="fill:#a9c1d9;fill-opacity:1" /></svg>