<?xml version="1.0" encoding="UTF-8" standalone="no"?>
<svg
   xmlns:dc="http://purl.org/dc/elements/1.1/"
   xmlns:cc="http://creativecommons.org/ns#"
   xmlns:rdf="http://www.w3.org/1999/02/22-rdf-syntax-ns#"
   xmlns:svg="http://www.w3.org/2000/svg"
   xmlns="http://www.w3.org/2000/svg"
   xmlns:sodipodi="http://sodipodi.sourceforge.net/DTD/sodipodi-0.dtd"
   xmlns:inkscape="http://www.inkscape.org/namespaces/inkscape"
   version="1.0"
   id="Capa_1"
   x="0px"
   y="0px"
   width="100px"
   height="100px"
   viewBox="0 0 100 100"
   enable-background="new 0 0 100 100"
   xml:space="preserve"
   inkscape:version="0.48.4 r9939"
   sodipodi:docname="service.svg"><metadata
     id="metadata9"><rdf:RDF><cc:Work
         rdf:about=""><dc:format>image/svg+xml</dc:format><dc:type
           rdf:resource="http://purl.org/dc/dcmitype/StillImage" /></cc:Work></rdf:RDF></metadata><defs
     id="defs7" /><sodipodi:namedview
     pagecolor="#ffffff"
     bordercolor="#666666"
     borderopacity="1"
     objecttolerance="10"
     gridtolerance="10"
     guidetolerance="10"
     inkscape:pageopacity="0"
     inkscape:pageshadow="2"
     inkscape:window-width="1680"
     inkscape:window-height="1022"
     id="namedview5"
     showgrid="false"
     inkscape:zoom="3.337544"
     inkscape:cx="67.12271"
     inkscape:cy="70.014768"
     inkscape:window-x="1366"
     inkscape:window-y="0"
     inkscape:window-maximized="1"
     inkscape:current-layer="Capa_1" /><path
     d="M 99.917673,59.757331 V 40.268057 H 89.480011 C 88.506667,36.199861 86.924178,32.376853 84.834068,28.88614 L 92.169598,21.543384 78.399363,7.7612009 71.123457,15.045885 C 67.623288,12.905324 63.783092,11.284175 59.694725,10.275998 V 0.00710877 H 40.224628 V 10.275998 c -4.089977,1.008177 -7.928562,2.629326 -11.425508,4.769887 L 21.519991,7.7612009 7.7529777,21.543384 15.086897,28.88614 c -2.091722,3.490713 -3.670988,7.312107 -4.644332,11.381917 H 0.00490373 V 59.757331 H 10.566651 c 1.010407,4.005286 2.605788,7.765384 4.702346,11.198026 L 7.7545892,78.48039 21.521602,92.262575 29.097247,84.681083 c 3.416372,2.05023 7.153431,3.608468 11.127381,4.58761 v 10.749587 h 19.47171 V 89.268693 c 3.973949,-0.977529 7.709397,-2.535767 11.128992,-4.58761 l 7.574033,7.581492 13.770235,-13.782185 -7.517629,-7.525033 c 2.098168,-3.432642 3.691938,-7.19274 4.703957,-11.198026 h 10.561747 z m -49.957996,3.798812 c -7.603039,0 -13.767012,-6.171658 -13.767012,-13.782185 0,-7.612141 6.163973,-13.783798 13.767012,-13.783798 7.604651,0 13.770235,6.171657 13.770235,13.783798 0,7.608914 -6.165584,13.782185 -13.770235,13.782185 z"
     id="path3"
     inkscape:connector-curvature="0"
     style="fill:#caccb6;fill-opacity:1" /></svg>